<?xml version="1.0" encoding="UTF-8" standalone="no"?>
<!-- Created with Inkscape (http://www.inkscape.org/) -->

<svg
   version="1.1"
   id="svg1369"
   xml:space="preserve"
   width="976"
   height="649.33331"
   viewBox="0 0 976 649.33331"
   sodipodi:docname="distributed.svg"
   inkscape:version="1.1.2 (0a00cf5339, 2022-02-04)"
   inkscape:export-filename="/home/eduardo/Documents/repo/Git/OpenScience/latex_playground/fig/distributed.png"
   inkscape:export-xdpi="96"
   inkscape:export-ydpi="96"
   xmlns:inkscape="http://www.inkscape.org/namespaces/inkscape"
   xmlns:sodipodi="http://sodipodi.sourceforge.net/DTD/sodipodi-0.dtd"
   xmlns="http://www.w3.org/2000/svg"
   xmlns:svg="http://www.w3.org/2000/svg"><defs
     id="defs1373" /><sodipodi:namedview
     id="namedview1371"
     pagecolor="#ffffff"
     bordercolor="#666666"
     borderopacity="1.0"
     inkscape:pageshadow="2"
     inkscape:pageopacity="0.0"
     inkscape:pagecheckerboard="0"
     showgrid="false"
     inkscape:zoom="0.86704315"
     inkscape:cx="478.06156"
     inkscape:cy="325.24333"
     inkscape:window-width="1920"
     inkscape:window-height="1031"
     inkscape:window-x="0"
     inkscape:window-y="25"
     inkscape:window-maximized="1"
     inkscape:current-layer="g1375" /><g
     id="g1375"
     inkscape:groupmode="layer"
     inkscape:label="ink_ext_XXXXXX"
     transform="matrix(1.3333333,0,0,-1.3333333,0,649.33333)"><path
       d="m 17.2621,292.648 10,10 H 75.941 v -36.289 l -10,-10 H 17.2621 v 36.289"
       style="fill:#f2f2f2;fill-opacity:1;fill-rule:evenodd;stroke:none;stroke-width:0.1"
       id="path1559" /><path
       d="m 17.2621,292.648 10,10 H 75.941 v -36.289 l -10,-10 H 17.2621 Z"
       style="fill:none;stroke:#171717;stroke-width:0.5;stroke-linecap:butt;stroke-linejoin:miter;stroke-miterlimit:10;stroke-dasharray:none;stroke-opacity:1"
       id="path1561" /><path
       d="m 65.941,292.648 10,10"
       style="fill:none;stroke:#171717;stroke-width:0.5;stroke-linecap:butt;stroke-linejoin:miter;stroke-miterlimit:10;stroke-dasharray:none;stroke-opacity:1"
       id="path1563" /><path
       d="M 17.2621,292.648 H 65.941"
       style="fill:none;stroke:#171717;stroke-width:0.5;stroke-linecap:butt;stroke-linejoin:miter;stroke-miterlimit:10;stroke-dasharray:none;stroke-opacity:1"
       id="path1565" /><path
       d="M 65.941,292.648 V 256.359"
       style="fill:none;stroke:#171717;stroke-width:0.5;stroke-linecap:butt;stroke-linejoin:miter;stroke-miterlimit:10;stroke-dasharray:none;stroke-opacity:1"
       id="path1567" /><path
       d="m 154.449,233.648 10,10 h 48.68 v -36.289 l -10,-10 h -48.68 v 36.289"
       style="fill:#f2f2f2;fill-opacity:1;fill-rule:evenodd;stroke:none;stroke-width:0.1"
       id="path1573" /><path
       d="m 154.449,233.648 10,10 h 48.68 v -36.289 l -10,-10 h -48.68 z"
       style="fill:none;stroke:#171717;stroke-width:0.5;stroke-linecap:butt;stroke-linejoin:miter;stroke-miterlimit:10;stroke-dasharray:none;stroke-opacity:1"
       id="path1575" /><path
       d="m 203.129,233.648 10,10"
       style="fill:none;stroke:#171717;stroke-width:0.5;stroke-linecap:butt;stroke-linejoin:miter;stroke-miterlimit:10;stroke-dasharray:none;stroke-opacity:1"
       id="path1577" /><path
       d="m 154.449,233.648 h 48.68"
       style="fill:none;stroke:#171717;stroke-width:0.5;stroke-linecap:butt;stroke-linejoin:miter;stroke-miterlimit:10;stroke-dasharray:none;stroke-opacity:1"
       id="path1579" /><path
       d="M 203.129,233.648 V 197.359"
       style="fill:none;stroke:#171717;stroke-width:0.5;stroke-linecap:butt;stroke-linejoin:miter;stroke-miterlimit:10;stroke-dasharray:none;stroke-opacity:1"
       id="path1581" /><path
       d="m 291.641,233.648 10,10 h 48.679 v -36.289 l -10,-10 h -48.679 v 36.289"
       style="fill:#f2f2f2;fill-opacity:1;fill-rule:evenodd;stroke:none;stroke-width:0.1"
       id="path1587" /><path
       d="m 291.641,233.648 10,10 h 48.679 v -36.289 l -10,-10 h -48.679 z"
       style="fill:none;stroke:#171717;stroke-width:0.5;stroke-linecap:butt;stroke-linejoin:miter;stroke-miterlimit:10;stroke-dasharray:none;stroke-opacity:1"
       id="path1589" /><path
       d="m 340.32,233.648 10,10"
       style="fill:none;stroke:#171717;stroke-width:0.5;stroke-linecap:butt;stroke-linejoin:miter;stroke-miterlimit:10;stroke-dasharray:none;stroke-opacity:1"
       id="path1591" /><path
       d="M 291.641,233.648 H 340.32"
       style="fill:none;stroke:#171717;stroke-width:0.5;stroke-linecap:butt;stroke-linejoin:miter;stroke-miterlimit:10;stroke-dasharray:none;stroke-opacity:1"
       id="path1593" /><path
       d="M 340.32,233.648 V 197.359"
       style="fill:none;stroke:#171717;stroke-width:0.5;stroke-linecap:butt;stroke-linejoin:miter;stroke-miterlimit:10;stroke-dasharray:none;stroke-opacity:1"
       id="path1595" /><path
       d="m 419.578,270.648 10,10 h 48.684 v -36.289 l -10,-10 h -48.684 v 36.289"
       style="fill:#f2f2f2;fill-opacity:1;fill-rule:evenodd;stroke:none;stroke-width:0.1"
       id="path1601" /><path
       d="m 419.578,270.648 10,10 h 48.684 v -36.289 l -10,-10 h -48.684 z"
       style="fill:none;stroke:#171717;stroke-width:0.5;stroke-linecap:butt;stroke-linejoin:miter;stroke-miterlimit:10;stroke-dasharray:none;stroke-opacity:1"
       id="path1603" /><path
       d="m 468.262,270.648 10,10"
       style="fill:none;stroke:#171717;stroke-width:0.5;stroke-linecap:butt;stroke-linejoin:miter;stroke-miterlimit:10;stroke-dasharray:none;stroke-opacity:1"
       id="path1605" /><path
       d="m 419.578,270.648 h 48.684"
       style="fill:none;stroke:#171717;stroke-width:0.5;stroke-linecap:butt;stroke-linejoin:miter;stroke-miterlimit:10;stroke-dasharray:none;stroke-opacity:1"
       id="path1607" /><path
       d="M 468.262,270.648 V 234.359"
       style="fill:none;stroke:#171717;stroke-width:0.5;stroke-linecap:butt;stroke-linejoin:miter;stroke-miterlimit:10;stroke-dasharray:none;stroke-opacity:1"
       id="path1609" /><path
       d="m 538.27,270.648 10,10 h 48.679 v -36.289 l -10,-10 H 538.27 v 36.289"
       style="fill:#f2f2f2;fill-opacity:1;fill-rule:evenodd;stroke:none;stroke-width:0.1"
       id="path1615" /><path
       d="m 538.27,270.648 10,10 h 48.679 v -36.289 l -10,-10 H 538.27 Z"
       style="fill:none;stroke:#171717;stroke-width:0.5;stroke-linecap:butt;stroke-linejoin:miter;stroke-miterlimit:10;stroke-dasharray:none;stroke-opacity:1"
       id="path1617" /><path
       d="m 586.949,270.648 10,10"
       style="fill:none;stroke:#171717;stroke-width:0.5;stroke-linecap:butt;stroke-linejoin:miter;stroke-miterlimit:10;stroke-dasharray:none;stroke-opacity:1"
       id="path1619" /><path
       d="m 538.27,270.648 h 48.679"
       style="fill:none;stroke:#171717;stroke-width:0.5;stroke-linecap:butt;stroke-linejoin:miter;stroke-miterlimit:10;stroke-dasharray:none;stroke-opacity:1"
       id="path1621" /><path
       d="M 586.949,270.648 V 234.359"
       style="fill:none;stroke:#171717;stroke-width:0.5;stroke-linecap:butt;stroke-linejoin:miter;stroke-miterlimit:10;stroke-dasharray:none;stroke-opacity:1"
       id="path1623" /><path
       d="m 656.949,270.648 10,10 h 48.68 v -36.289 l -10,-10 h -48.68 v 36.289"
       style="fill:#f2f2f2;fill-opacity:1;fill-rule:evenodd;stroke:none;stroke-width:0.1"
       id="path1629" /><path
       d="m 656.949,270.648 10,10 h 48.68 v -36.289 l -10,-10 h -48.68 z"
       style="fill:none;stroke:#171717;stroke-width:0.5;stroke-linecap:butt;stroke-linejoin:miter;stroke-miterlimit:10;stroke-dasharray:none;stroke-opacity:1"
       id="path1631" /><path
       d="m 705.629,270.648 10,10"
       style="fill:none;stroke:#171717;stroke-width:0.5;stroke-linecap:butt;stroke-linejoin:miter;stroke-miterlimit:10;stroke-dasharray:none;stroke-opacity:1"
       id="path1633" /><path
       d="m 656.949,270.648 h 48.68"
       style="fill:none;stroke:#171717;stroke-width:0.5;stroke-linecap:butt;stroke-linejoin:miter;stroke-miterlimit:10;stroke-dasharray:none;stroke-opacity:1"
       id="path1635" /><path
       d="M 705.629,270.648 V 234.359"
       style="fill:none;stroke:#171717;stroke-width:0.5;stroke-linecap:butt;stroke-linejoin:miter;stroke-miterlimit:10;stroke-dasharray:none;stroke-opacity:1"
       id="path1637" /><path
       d="m 22.741333,88.541143 10,10 h 48.68 v -36.289 l -10,-10 h -48.68 v 36.289"
       style="fill:#f2f2f2;fill-opacity:1;fill-rule:evenodd;stroke:none;stroke-width:0.1"
       id="path1629-3" /><path
       d="m 22.741333,88.541143 10,10 h 48.68 v -36.289 l -10,-10 h -48.68 z"
       style="fill:none;stroke:#171717;stroke-width:0.5;stroke-linecap:butt;stroke-linejoin:miter;stroke-miterlimit:10;stroke-dasharray:none;stroke-opacity:1"
       id="path1631-6" /><path
       d="m 71.421333,88.541143 10,10"
       style="fill:none;stroke:#171717;stroke-width:0.5;stroke-linecap:butt;stroke-linejoin:miter;stroke-miterlimit:10;stroke-dasharray:none;stroke-opacity:1"
       id="path1633-7" /><path
       d="m 22.741333,88.541143 h 48.68"
       style="fill:none;stroke:#171717;stroke-width:0.5;stroke-linecap:butt;stroke-linejoin:miter;stroke-miterlimit:10;stroke-dasharray:none;stroke-opacity:1"
       id="path1635-5" /><path
       d="m 71.421333,88.541143 v -36.289"
       style="fill:none;stroke:#171717;stroke-width:0.5;stroke-linecap:butt;stroke-linejoin:miter;stroke-miterlimit:10;stroke-dasharray:none;stroke-opacity:1"
       id="path1637-3" /><path
       d="m 76.2699,266.988 c 22.941,-10 54.9491,-23.988 77.8901,-34"
       style="fill:none;stroke:#171717;stroke-width:1;stroke-linecap:butt;stroke-linejoin:miter;stroke-miterlimit:10;stroke-dasharray:none;stroke-opacity:1"
       id="path1657" /><path
       d="m 213.461,220.5 c 22.949,0 54.961,0 77.898,0"
       style="fill:none;stroke:#171717;stroke-width:1;stroke-linecap:butt;stroke-linejoin:miter;stroke-miterlimit:10;stroke-dasharray:none;stroke-opacity:1"
       id="path1659" /><path
       d="m 350.559,228.898 c 20.613,6.051 48.32,14.192 68.902,20.243"
       style="fill:none;stroke:#171717;stroke-width:1;stroke-linecap:butt;stroke-linejoin:miter;stroke-miterlimit:10;stroke-dasharray:none;stroke-opacity:1"
       id="path1661" /><path
       d="m 478.469,257.5 c 18.07,0 41.383,0 59.48,0"
       style="fill:none;stroke:#171717;stroke-width:1;stroke-linecap:butt;stroke-linejoin:miter;stroke-miterlimit:10;stroke-dasharray:none;stroke-opacity:1"
       id="path1663" /><path
       d="m 597.148,257.5 c 18.082,0 41.383,0 59.493,0"
       style="fill:none;stroke:#171717;stroke-width:1;stroke-linecap:butt;stroke-linejoin:miter;stroke-miterlimit:10;stroke-dasharray:none;stroke-opacity:1"
       id="path1665" /><path
       d="m 656.73,273.551 c -16.89,8.758 -38.968,19.008 -59.781,24.949 -63.301,18.078 -81.187,18 -147.027,18 -129.934,0 -129.934,0 -129.934,0 -89.726,0 -194.578,-19.941 -243.9368,-30.559"
       style="fill:none;stroke:#171717;stroke-width:1;stroke-linecap:butt;stroke-linejoin:miter;stroke-miterlimit:10;stroke-dasharray:none;stroke-opacity:1"
       id="path1667" /><path
       d="M 76.391,277.93 C 150.16,273.871 345.34,263.141 419.129,259.078"
       style="fill:none;stroke:#171717;stroke-width:1;stroke-linecap:butt;stroke-linejoin:miter;stroke-miterlimit:10;stroke-dasharray:none;stroke-opacity:1"
       id="path1669" /><path
       d="m 213.289,204.961 c 18.973,-9.43 44.781,-20.563 69.102,-25.461 33.629,-6.77 43.16,-4.328 77.187,0 64.953,8.301 82.563,10.879 142.594,37 12.289,5.34 24.906,12.859 35.687,19.988"
       style="fill:none;stroke:#171717;stroke-width:1;stroke-linecap:butt;stroke-linejoin:miter;stroke-miterlimit:10;stroke-dasharray:none;stroke-opacity:1"
       id="path1671" /><path
       d="m 350.52,215.82 c 50.441,-7.32 158.32,-18.761 246.429,0.68 20.961,4.629 42.871,14.762 59.621,23.801"
       style="fill:none;stroke:#171717;stroke-width:1;stroke-linecap:butt;stroke-linejoin:miter;stroke-miterlimit:10;stroke-dasharray:none;stroke-opacity:1"
       id="path1673" /><text
       xml:space="preserve"
       style="font-style:normal;font-weight:normal;font-size:30px;line-height:1.25;font-family:sans-serif;fill:#000000;fill-opacity:1;stroke:none;stroke-width:0.75"
       x="97.134567"
       y="-69.738205"
       id="text6556"
       transform="scale(1,-1)"><tspan
         sodipodi:role="line"
         id="tspan6554"
         style="font-style:normal;font-variant:normal;font-weight:normal;font-stretch:normal;font-family:calibri;-inkscape-font-specification:calibri;stroke-width:0.75"
         x="97.134567"
         y="-69.738205">participant node</tspan></text></g></svg>
