<svg xmlns="http://www.w3.org/2000/svg" xmlns:xlink="http://www.w3.org/1999/xlink" contentStyleType="text/css" data-diagram-type="JSON" height="263px" preserveAspectRatio="none" style="width:2924px;height:263px;background:#FFFFFF;" version="1.1" viewBox="0 0 2924 263" width="2924px" zoomAndPan="magnify"><defs/><g><rect fill="#F1F1F1" height="40.5938" rx="5" ry="5" style="stroke:#F1F1F1;stroke-width:1.5;" width="107.1445" x="10" y="56"/><text fill="#000000" font-family="sans-serif" font-size="14" font-weight="bold" lengthAdjust="spacing" textLength="73.7939" x="15" y="70.9951">@context</text><text fill="#000000" font-family="sans-serif" font-size="14" lengthAdjust="spacing" textLength="13.3506" x="98.7939" y="70.9951">&#160;&#160;&#160;</text><line style="stroke:#000000;stroke-width:1;" x1="93.7939" x2="93.7939" y1="56" y2="76.2969"/><line style="stroke:#000000;stroke-width:1;" x1="10" x2="117.1445" y1="76.2969" y2="76.2969"/><text fill="#000000" font-family="sans-serif" font-size="14" font-weight="bold" lengthAdjust="spacing" textLength="60.3613" x="15" y="91.292">@graph</text><text fill="#000000" font-family="sans-serif" font-size="14" lengthAdjust="spacing" textLength="13.3506" x="98.7939" y="91.292">&#160;&#160;&#160;</text><line style="stroke:#000000;stroke-width:1;" x1="93.7939" x2="93.7939" y1="76.2969" y2="96.5938"/><rect fill="none" height="40.5938" rx="5" ry="5" style="stroke:#000000;stroke-width:1.5;" width="107.1445" x="10" y="56"/><rect fill="#F1F1F1" height="40.5938" rx="5" ry="5" style="stroke:#F1F1F1;stroke-width:1.5;" width="249.6055" x="154" y="32"/><text fill="#000000" font-family="sans-serif" font-size="14" font-weight="bold" lengthAdjust="spacing" textLength="60.1289" x="159" y="46.9951">schema</text><text fill="#000000" font-family="sans-serif" font-size="14" lengthAdjust="spacing" textLength="129.958" x="229.1289" y="46.9951">http://schema.org/</text><line style="stroke:#000000;stroke-width:1;" x1="224.1289" x2="224.1289" y1="32" y2="52.2969"/><line style="stroke:#000000;stroke-width:1;" x1="154" x2="403.6055" y1="52.2969" y2="52.2969"/><text fill="#000000" font-family="sans-serif" font-size="14" font-weight="bold" lengthAdjust="spacing" textLength="18.3203" x="159" y="67.292">dc</text><text fill="#000000" font-family="sans-serif" font-size="14" lengthAdjust="spacing" textLength="169.4766" x="229.1289" y="67.292">http://purl.org/dc/terms/</text><line style="stroke:#000000;stroke-width:1;" x1="224.1289" x2="224.1289" y1="52.2969" y2="72.5938"/><rect fill="none" height="40.5938" rx="5" ry="5" style="stroke:#000000;stroke-width:1.5;" width="249.6055" x="154" y="32"/><rect fill="#F1F1F1" height="20.2969" rx="5" ry="5" style="stroke:#F1F1F1;stroke-width:1.5;" width="23.3506" x="267.5" y="91.3516"/><text fill="#000000" font-family="sans-serif" font-size="14" lengthAdjust="spacing" textLength="13.3506" x="272.5" y="106.3467">&#160;&#160;&#160;</text><rect fill="none" height="20.2969" rx="5" ry="5" style="stroke:#000000;stroke-width:1.5;" width="23.3506" x="267.5" y="91.3516"/><rect fill="#F1F1F1" height="121.7813" rx="5" ry="5" style="stroke:#F1F1F1;stroke-width:1.5;" width="741.0684" x="441" y="40.5"/><text fill="#000000" font-family="sans-serif" font-size="14" font-weight="bold" lengthAdjust="spacing" textLength="49.335" x="446" y="55.4951">@type</text><text fill="#000000" font-family="sans-serif" font-size="14" lengthAdjust="spacing" textLength="173.0176" x="624.6631" y="55.4951">schema:ResearchProject</text><line style="stroke:#000000;stroke-width:1;" x1="619.6631" x2="619.6631" y1="40.5" y2="60.7969"/><line style="stroke:#000000;stroke-width:1;" x1="441" x2="1182.0684" y1="60.7969" y2="60.7969"/><text fill="#000000" font-family="sans-serif" font-size="14" font-weight="bold" lengthAdjust="spacing" textLength="138.79" x="446" y="75.792">schema:identifier</text><text fill="#000000" font-family="sans-serif" font-size="14" lengthAdjust="spacing" textLength="85.4219" x="624.6631" y="75.792">02226@test</text><line style="stroke:#000000;stroke-width:1;" x1="619.6631" x2="619.6631" y1="60.7969" y2="81.0938"/><line style="stroke:#000000;stroke-width:1;" x1="441" x2="1182.0684" y1="81.0938" y2="81.0938"/><text fill="#000000" font-family="sans-serif" font-size="14" font-weight="bold" lengthAdjust="spacing" textLength="143.1035" x="446" y="96.0889">schema:publicKey</text><text fill="#000000" font-family="sans-serif" font-size="14" lengthAdjust="spacing" textLength="552.4053" x="624.6631" y="96.0889">1c6b8d00c8382c93eb0dd3eeb24a20bfece56a28326bbaebb647cadaf4750520</text><line style="stroke:#000000;stroke-width:1;" x1="619.6631" x2="619.6631" y1="81.0938" y2="101.3906"/><line style="stroke:#000000;stroke-width:1;" x1="441" x2="1182.0684" y1="101.3906" y2="101.3906"/><text fill="#000000" font-family="sans-serif" font-size="14" font-weight="bold" lengthAdjust="spacing" textLength="154.6768" x="446" y="116.3857">schema:description</text><text fill="#000000" font-family="sans-serif" font-size="14" lengthAdjust="spacing" textLength="13.3506" x="624.6631" y="116.3857">&#160;&#160;&#160;</text><line style="stroke:#000000;stroke-width:1;" x1="619.6631" x2="619.6631" y1="101.3906" y2="121.6875"/><line style="stroke:#000000;stroke-width:1;" x1="441" x2="1182.0684" y1="121.6875" y2="121.6875"/><text fill="#000000" font-family="sans-serif" font-size="14" font-weight="bold" lengthAdjust="spacing" textLength="168.6631" x="446" y="136.6826">schema:metadataCID</text><text fill="#000000" font-family="sans-serif" font-size="14" lengthAdjust="spacing" textLength="427.0137" x="624.6631" y="136.6826">Qmay4cDaxUaZaHoJKqzN69XkiX8wMx17aG4VMmwmkLcL1a</text><line style="stroke:#000000;stroke-width:1;" x1="619.6631" x2="619.6631" y1="121.6875" y2="141.9844"/><line style="stroke:#000000;stroke-width:1;" x1="441" x2="1182.0684" y1="141.9844" y2="141.9844"/><text fill="#000000" font-family="sans-serif" font-size="14" font-weight="bold" lengthAdjust="spacing" textLength="155.8184" x="446" y="156.9795">schema:linked_user</text><text fill="#000000" font-family="sans-serif" font-size="14" lengthAdjust="spacing" textLength="158.416" x="624.6631" y="156.9795">zealous_ptolemy@test</text><line style="stroke:#000000;stroke-width:1;" x1="619.6631" x2="619.6631" y1="141.9844" y2="162.2813"/><rect fill="none" height="121.7813" rx="5" ry="5" style="stroke:#000000;stroke-width:1.5;" width="741.0684" x="441" y="40.5"/><rect fill="#F1F1F1" height="182.6719" rx="5" ry="5" style="stroke:#F1F1F1;stroke-width:1.5;" width="1330.1074" x="1219" y="20"/><text fill="#000000" font-family="sans-serif" font-size="14" font-weight="bold" lengthAdjust="spacing" textLength="73.7939" x="1224" y="34.9951">@context</text><text fill="#000000" font-family="sans-serif" font-size="14" lengthAdjust="spacing" textLength="13.3506" x="1375.4697" y="34.9951">&#160;&#160;&#160;</text><line style="stroke:#000000;stroke-width:1;" x1="1370.4697" x2="1370.4697" y1="20" y2="40.2969"/><line style="stroke:#000000;stroke-width:1;" x1="1219" x2="2549.1074" y1="40.2969" y2="40.2969"/><text fill="#000000" font-family="sans-serif" font-size="14" font-weight="bold" lengthAdjust="spacing" textLength="49.335" x="1224" y="55.292">@type</text><text fill="#000000" font-family="sans-serif" font-size="14" lengthAdjust="spacing" textLength="173.0176" x="1375.4697" y="55.292">schema:ResearchProject</text><line style="stroke:#000000;stroke-width:1;" x1="1370.4697" x2="1370.4697" y1="40.2969" y2="60.5938"/><line style="stroke:#000000;stroke-width:1;" x1="1219" x2="2549.1074" y1="60.5938" y2="60.5938"/><text fill="#000000" font-family="sans-serif" font-size="14" font-weight="bold" lengthAdjust="spacing" textLength="109.2246" x="1224" y="75.5889">schema:name</text><text fill="#000000" font-family="sans-serif" font-size="14" lengthAdjust="spacing" textLength="495.8789" x="1375.4697" y="75.5889">Assessing the Benefits of precision agriculture for global supply chains</text><line style="stroke:#000000;stroke-width:1;" x1="1370.4697" x2="1370.4697" y1="60.5938" y2="80.8906"/><line style="stroke:#000000;stroke-width:1;" x1="1219" x2="2549.1074" y1="80.8906" y2="80.8906"/><text fill="#000000" font-family="sans-serif" font-size="14" font-weight="bold" lengthAdjust="spacing" textLength="89.7559" x="1224" y="95.8857">dc:abstract</text><text fill="#000000" font-family="sans-serif" font-size="14" lengthAdjust="spacing" textLength="1168.6377" x="1375.4697" y="95.8857">This research focuses on the benefits and challenges posed by precision agriculture for global supply chains, with an emphasis on its potential for disease prevention.</text><line style="stroke:#000000;stroke-width:1;" x1="1370.4697" x2="1370.4697" y1="80.8906" y2="101.1875"/><line style="stroke:#000000;stroke-width:1;" x1="1219" x2="2549.1074" y1="101.1875" y2="101.1875"/><text fill="#000000" font-family="sans-serif" font-size="14" font-weight="bold" lengthAdjust="spacing" textLength="141.4697" x="1224" y="116.1826">schema:keywords</text><text fill="#000000" font-family="sans-serif" font-size="14" lengthAdjust="spacing" textLength="13.3506" x="1375.4697" y="116.1826">&#160;&#160;&#160;</text><line style="stroke:#000000;stroke-width:1;" x1="1370.4697" x2="1370.4697" y1="101.1875" y2="121.4844"/><line style="stroke:#000000;stroke-width:1;" x1="1219" x2="2549.1074" y1="121.4844" y2="121.4844"/><text fill="#000000" font-family="sans-serif" font-size="14" font-weight="bold" lengthAdjust="spacing" textLength="141.0527" x="1224" y="136.4795">schema:startDate</text><text fill="#000000" font-family="sans-serif" font-size="14" lengthAdjust="spacing" textLength="81.3613" x="1375.4697" y="136.4795">2023-12-18</text><line style="stroke:#000000;stroke-width:1;" x1="1370.4697" x2="1370.4697" y1="121.4844" y2="141.7813"/><line style="stroke:#000000;stroke-width:1;" x1="1219" x2="2549.1074" y1="141.7813" y2="141.7813"/><text fill="#000000" font-family="sans-serif" font-size="14" font-weight="bold" lengthAdjust="spacing" textLength="132.4668" x="1224" y="156.7764">schema:endDate</text><text fill="#000000" font-family="sans-serif" font-size="14" lengthAdjust="spacing" textLength="81.3613" x="1375.4697" y="156.7764">2027-01-02</text><line style="stroke:#000000;stroke-width:1;" x1="1370.4697" x2="1370.4697" y1="141.7813" y2="162.0781"/><line style="stroke:#000000;stroke-width:1;" x1="1219" x2="2549.1074" y1="162.0781" y2="162.0781"/><text fill="#000000" font-family="sans-serif" font-size="14" font-weight="bold" lengthAdjust="spacing" textLength="126.5605" x="1224" y="177.0732">schema:funding</text><text fill="#000000" font-family="sans-serif" font-size="14" lengthAdjust="spacing" textLength="13.3506" x="1375.4697" y="177.0732">&#160;&#160;&#160;</text><line style="stroke:#000000;stroke-width:1;" x1="1370.4697" x2="1370.4697" y1="162.0781" y2="182.375"/><line style="stroke:#000000;stroke-width:1;" x1="1219" x2="2549.1074" y1="182.375" y2="182.375"/><text fill="#000000" font-family="sans-serif" font-size="14" font-weight="bold" lengthAdjust="spacing" textLength="128.9668" x="1224" y="197.3701">schema:location</text><text fill="#000000" font-family="sans-serif" font-size="14" lengthAdjust="spacing" textLength="13.3506" x="1375.4697" y="197.3701">&#160;&#160;&#160;</text><line style="stroke:#000000;stroke-width:1;" x1="1370.4697" x2="1370.4697" y1="182.375" y2="202.6719"/><rect fill="none" height="182.6719" rx="5" ry="5" style="stroke:#000000;stroke-width:1.5;" width="1330.1074" x="1219" y="20"/><rect fill="#F1F1F1" height="40.5938" rx="5" ry="5" style="stroke:#F1F1F1;stroke-width:1.5;" width="249.6055" x="2624" y="10"/><text fill="#000000" font-family="sans-serif" font-size="14" font-weight="bold" lengthAdjust="spacing" textLength="60.1289" x="2629" y="24.9951">schema</text><text fill="#000000" font-family="sans-serif" font-size="14" lengthAdjust="spacing" textLength="129.958" x="2699.1289" y="24.9951">http://schema.org/</text><line style="stroke:#000000;stroke-width:1;" x1="2694.1289" x2="2694.1289" y1="10" y2="30.2969"/><line style="stroke:#000000;stroke-width:1;" x1="2624" x2="2873.6055" y1="30.2969" y2="30.2969"/><text fill="#000000" font-family="sans-serif" font-size="14" font-weight="bold" lengthAdjust="spacing" textLength="18.3203" x="2629" y="45.292">dc</text><text fill="#000000" font-family="sans-serif" font-size="14" lengthAdjust="spacing" textLength="169.4766" x="2699.1289" y="45.292">http://purl.org/dc/terms/</text><line style="stroke:#000000;stroke-width:1;" x1="2694.1289" x2="2694.1289" y1="30.2969" y2="50.5938"/><rect fill="none" height="40.5938" rx="5" ry="5" style="stroke:#000000;stroke-width:1.5;" width="249.6055" x="2624" y="10"/><rect fill="#F1F1F1" height="60.8906" rx="5" ry="5" style="stroke:#F1F1F1;stroke-width:1.5;" width="154.2178" x="2672" y="73"/><text fill="#000000" font-family="sans-serif" font-size="14" lengthAdjust="spacing" textLength="144.2178" x="2677" y="87.9951">precision agriculture</text><line style="stroke:#000000;stroke-width:1;" x1="2672" x2="2826.2178" y1="93.2969" y2="93.2969"/><text fill="#000000" font-family="sans-serif" font-size="14" lengthAdjust="spacing" textLength="142.9189" x="2677" y="108.292">global supply chains</text><line style="stroke:#000000;stroke-width:1;" x1="2672" x2="2826.2178" y1="113.5938" y2="113.5938"/><text fill="#000000" font-family="sans-serif" font-size="14" lengthAdjust="spacing" textLength="133.4648" x="2677" y="128.5889">disease prevention</text><rect fill="none" height="60.8906" rx="5" ry="5" style="stroke:#000000;stroke-width:1.5;" width="154.2178" x="2672" y="73"/><rect fill="#F1F1F1" height="40.5938" rx="5" ry="5" style="stroke:#F1F1F1;stroke-width:1.5;" width="278.3848" x="2610" y="152"/><text fill="#000000" font-family="sans-serif" font-size="14" font-weight="bold" lengthAdjust="spacing" textLength="49.335" x="2615" y="166.9951">@type</text><text fill="#000000" font-family="sans-serif" font-size="14" lengthAdjust="spacing" textLength="149.1602" x="2734.2246" y="166.9951">schema:Organization</text><line style="stroke:#000000;stroke-width:1;" x1="2729.2246" x2="2729.2246" y1="152" y2="172.2969"/><line style="stroke:#000000;stroke-width:1;" x1="2610" x2="2888.3848" y1="172.2969" y2="172.2969"/><text fill="#000000" font-family="sans-serif" font-size="14" font-weight="bold" lengthAdjust="spacing" textLength="109.2246" x="2615" y="187.292">schema:name</text><text fill="#000000" font-family="sans-serif" font-size="14" lengthAdjust="spacing" textLength="136.3564" x="2734.2246" y="187.292">World Wildlife Fund</text><line style="stroke:#000000;stroke-width:1;" x1="2729.2246" x2="2729.2246" y1="172.2969" y2="192.5938"/><rect fill="none" height="40.5938" rx="5" ry="5" style="stroke:#000000;stroke-width:1.5;" width="278.3848" x="2610" y="152"/><rect fill="#F1F1F1" height="40.5938" rx="5" ry="5" style="stroke:#F1F1F1;stroke-width:1.5;" width="326.3184" x="2586" y="211"/><text fill="#000000" font-family="sans-serif" font-size="14" font-weight="bold" lengthAdjust="spacing" textLength="49.335" x="2591" y="225.9951">@type</text><text fill="#000000" font-family="sans-serif" font-size="14" lengthAdjust="spacing" textLength="96.6328" x="2710.2246" y="225.9951">schema:Place</text><line style="stroke:#000000;stroke-width:1;" x1="2705.2246" x2="2705.2246" y1="211" y2="231.2969"/><line style="stroke:#000000;stroke-width:1;" x1="2586" x2="2912.3184" y1="231.2969" y2="231.2969"/><text fill="#000000" font-family="sans-serif" font-size="14" font-weight="bold" lengthAdjust="spacing" textLength="109.2246" x="2591" y="246.292">schema:name</text><text fill="#000000" font-family="sans-serif" font-size="14" lengthAdjust="spacing" textLength="197.0938" x="2710.2246" y="246.292">Los Angeles, California, USA</text><line style="stroke:#000000;stroke-width:1;" x1="2705.2246" x2="2705.2246" y1="231.2969" y2="251.5938"/><rect fill="none" height="40.5938" rx="5" ry="5" style="stroke:#000000;stroke-width:1.5;" width="326.3184" x="2586" y="211"/><path d="M105,66.5 L118,66.5 C127.2696,66.5 136.8289,66.2654 146.4477,65.8569" fill="none" style="stroke:#000000;stroke-width:1;stroke-dasharray:3.0,3.0;"/><path d="M146.5932,68.9458 L148.7644,65.7478 L146.3022,62.7679 L154.1701,65.4932 L146.5932,68.9458" fill="#000000" style="stroke:#000000;stroke-width:1;"/><ellipse cx="105" cy="66.5" fill="#000000" rx="3" ry="3" style="stroke:#000000;stroke-width:1;"/><path d="M2536.5,30.5 L2549.5,30.5 C2571.2278,30.5 2594.2901,30.5 2616.7199,30.5" fill="none" style="stroke:#000000;stroke-width:1;stroke-dasharray:3.0,3.0;"/><path d="M2616.7199,33.5318 L2618.9937,30.5 L2616.7199,27.4682 L2624.2994,30.5 L2616.7199,33.5318" fill="#000000" style="stroke:#000000;stroke-width:1;"/><ellipse cx="2536.5" cy="30.5" fill="#000000" rx="3" ry="3" style="stroke:#000000;stroke-width:1;"/><path d="M2536.5,111.5 L2549.5,111.5 C2587.2708,111.5 2629.0416,110.0433 2664.5214,108.3732" fill="none" style="stroke:#000000;stroke-width:1;stroke-dasharray:3.0,3.0;"/><path d="M2664.6742,111.5482 L2666.9026,108.2585 L2664.3685,105.1981 L2672.459,107.9911 L2664.6742,111.5482" fill="#000000" style="stroke:#000000;stroke-width:1;"/><ellipse cx="2536.5" cy="111.5" fill="#000000" rx="3" ry="3" style="stroke:#000000;stroke-width:1;"/><path d="M2536.5,172.5 L2549.5,172.5 C2566.7311,172.5 2584.8015,172.5 2602.7301,172.5" fill="none" style="stroke:#000000;stroke-width:1;stroke-dasharray:3.0,3.0;"/><path d="M2602.7301,175.5689 L2605.0317,172.5 L2602.7301,169.4311 L2610.4022,172.5 L2602.7301,175.5689" fill="#000000" style="stroke:#000000;stroke-width:1;"/><ellipse cx="2536.5" cy="172.5" fill="#000000" rx="3" ry="3" style="stroke:#000000;stroke-width:1;"/><path d="M2536.5,192.5 L2549.5,192.5 C2566.32,192.5 2569.5928,198.7964 2586,202.5 C2596.5615,204.884 2607.5449,207.196 2618.5957,209.4053" fill="none" style="stroke:#000000;stroke-width:1;stroke-dasharray:3.0,3.0;"/><path d="M2617.9906,212.468 L2620.8928,209.8591 L2619.2008,206.3425 L2626.2527,210.918 L2617.9906,212.468" fill="#000000" style="stroke:#000000;stroke-width:1;"/><ellipse cx="2536.5" cy="192.5" fill="#000000" rx="3" ry="3" style="stroke:#000000;stroke-width:1;"/><path d="M1170,111.5 L1183,111.5 C1192.4762,111.5 1202.0245,111.5 1211.6318,111.5" fill="none" style="stroke:#000000;stroke-width:1;stroke-dasharray:3.0,3.0;"/><path d="M1211.6318,114.5869 L1213.9469,111.5 L1211.6318,108.4131 L1219.349,111.5 L1211.6318,114.5869" fill="#000000" style="stroke:#000000;stroke-width:1;"/><ellipse cx="1170" cy="111.5" fill="#000000" rx="3" ry="3" style="stroke:#000000;stroke-width:1;"/><path d="M278.0954,101.5 L291.0954,101.5 C313.972,101.5 368.4191,101.5 433.8714,101.5" fill="none" style="stroke:#000000;stroke-width:1;stroke-dasharray:3.0,3.0;"/><path d="M433.8714,104.5461 L436.156,101.5 L433.8714,98.4539 L441.4867,101.5 L433.8714,104.5461" fill="#000000" style="stroke:#000000;stroke-width:1;"/><ellipse cx="278.0954" cy="101.5" fill="#000000" rx="3" ry="3" style="stroke:#000000;stroke-width:1;"/><path d="M105,86.5 L118,86.5 C169.6735,86.5 230.3007,94.3031 260.0849,98.6533" fill="none" style="stroke:#000000;stroke-width:1;stroke-dasharray:3.0,3.0;"/><path d="M259.6345,101.6732 L262.3499,98.9911 L260.5354,95.6334 L267.6347,99.7793 L259.6345,101.6732" fill="#000000" style="stroke:#000000;stroke-width:1;"/><ellipse cx="105" cy="86.5" fill="#000000" rx="3" ry="3" style="stroke:#000000;stroke-width:1;"/><!--SRC=[bLNRKjim47ttLsZo13C9SPmB8KzSqj92KYWGODfXEcjfROl8aYl9XD3XtoixN9AIf937zTbpZbPdbLrZGTjRewJtnoFkLzcbIbgyjvKUcLNAgg49fk1gbSJQh5UlpmfRIiVrIlKLn-WS9ikrA16CrYtgrDGh9VAn-YGLQyWIr_3pXU1LSeQmqmmBnfbSxmmDWgR9gLQtIEsSyfpB7cSeBOyuwgBL3uAWislHh89dUIWuFSPfWMxGJjXbla-xpMv0TveO-emr4SEW1O4VHaYntO6WsmmwOGWOXftMDWK6KMkxxRS3VuK6GqCrponNSc6mhoTTDlObJF-zWeMUTrt7_E-nkiJQXovX_jGIqh9npnWqXikOs0J9FagCk3L4HIJJIBbnKo4GQqvpONED95AQn4A588Z9iqnC2Ks0IxDCYj4UXCPgeCNiAXS9DqG_ENH4D7VInF4Nok6pCaXMK0g1CdQVCsMGaN3wGJjLCk4sSMG4qom1mqkXWZzJjeYWQoXw6NTs31RiTqLPoQqrGnlZTA8qCmjxiG1Swd9L1DuvnzaitnXzcv2RrSxBjwGFjhppm0-QjKPGQtJNd1KbcyDlr_n6pG_MuADSCXUZrKloRrPFT0oIFq1vbkgwnNe9wvNIWf4hBfZW4PBFJl9zU_B48nI5bNk-rEIf08hlT3TGXkovq0fqyJi0Pr5foQ5AHkTxIsnwQqm_KwTetGDcuU1hlr3udiAqHVjmFu8Vy4KT7Vz- -DRPkHxpw-vaUD_OXiFMvJ2TfEC17JHWnNidk1mZ- -MMhto37n24oislp2g1wNJs6dkBBc-yHs_N1QByC_BSJAGT3GVa3dKPzSQMIqXxgnawj-sDaHnBDP64gZJZ0edbAMvw6uUd0s9KhYaMIsSr3_FYAZQz8xW3SfRB0jSZ9ndAe_xnSu5yadTSAvcwp7j7byDNGATLs-UMdADsDiZbqEjZ16xVN0TLHH9xP7JnkTRr1Y3Z76B7ZT8xK8vNJzstyxy0]--></g></svg>